<mxfile host="65bd71144e">
    <diagram id="Fg0DU775dPfxId-9n8Dg" name="PÃ¡gina-1">
        <mxGraphModel dx="4580" dy="1823" grid="0" gridSize="10" guides="1" tooltips="1" connect="1" arrows="1" fold="1" page="1" pageScale="1" pageWidth="827" pageHeight="1169" background="#ffffff" math="0" shadow="1">
            <root>
                <mxCell id="0"/>
                <mxCell id="1" parent="0"/>
                <mxCell id="138" style="edgeStyle=elbowEdgeStyle;rounded=1;hachureGap=4;jumpSize=6;elbow=vertical;html=1;strokeWidth=1;fontFamily=Times New Roman;fontSize=20;fontColor=#000000;startArrow=none;startFill=0;endArrow=diamond;endFill=0;startSize=19;endSize=19;exitX=0;exitY=0.5;exitDx=0;exitDy=0;entryX=0.152;entryY=1.013;entryDx=0;entryDy=0;entryPerimeter=0;verticalAlign=top;labelBackgroundColor=none;strokeColor=#000000;labelBorderColor=none;spacing=6;" parent="1" source="143" target="157" edge="1">
                    <mxGeometry relative="1" as="geometry">
                        <mxPoint x="-395" y="1530" as="targetPoint"/>
                        <mxPoint x="-160" y="2020" as="sourcePoint"/>
                        <Array as="points">
                            <mxPoint x="-430" y="1750"/>
                        </Array>
                    </mxGeometry>
                </mxCell>
                <mxCell id="139" value="belongs" style="edgeLabel;html=1;align=center;verticalAlign=middle;resizable=0;points=[];fontSize=20;fontFamily=Times New Roman;fontColor=#000000;labelBackgroundColor=#FFFFFF;" parent="138" vertex="1" connectable="0">
                    <mxGeometry x="0.6" y="-2" relative="1" as="geometry">
                        <mxPoint x="102" y="166" as="offset"/>
                    </mxGeometry>
                </mxCell>
                <mxCell id="140" value="0...n" style="edgeLabel;align=center;verticalAlign=middle;resizable=0;points=[];fontSize=20;fontFamily=Times New Roman;fontColor=#000000;html=1;labelBackgroundColor=#ffffff;" parent="138" vertex="1" connectable="0">
                    <mxGeometry x="0.7321" y="5" relative="1" as="geometry">
                        <mxPoint y="1" as="offset"/>
                    </mxGeometry>
                </mxCell>
                <mxCell id="141" value="1...1" style="edgeLabel;align=center;verticalAlign=middle;resizable=0;points=[];fontSize=20;fontFamily=Times New Roman;fontColor=#000000;labelBackgroundColor=#ffffff;" parent="138" vertex="1" connectable="0">
                    <mxGeometry x="-0.737" y="-3" relative="1" as="geometry">
                        <mxPoint x="-4" y="1" as="offset"/>
                    </mxGeometry>
                </mxCell>
                <mxCell id="142" value="Product" style="swimlane;fontStyle=0;align=center;verticalAlign=top;childLayout=stackLayout;horizontal=1;startSize=55;horizontalStack=0;resizeParent=1;resizeParentMax=0;resizeLast=0;collapsible=0;marginBottom=0;html=1;hachureGap=4;fontFamily=Times New Roman;fontSize=20;rounded=1;labelBackgroundColor=none;labelBorderColor=none;whiteSpace=wrap;fillStyle=auto;strokeWidth=6;shadow=0;glass=0;spacing=6;" parent="1" vertex="1">
                    <mxGeometry x="-75" y="1602" width="570" height="486" as="geometry"/>
                </mxCell>
                <mxCell id="143" value="&lt;span style=&quot;font-size: 20px;&quot;&gt;- (static) int: counter&lt;br&gt;- int: id&lt;br style=&quot;font-size: 20px;&quot;&gt;- String: name&lt;br style=&quot;font-size: 20px;&quot;&gt;- float: price&lt;br style=&quot;font-size: 20px;&quot;&gt;- int: quiantityStock&lt;br style=&quot;font-size: 20px;&quot;&gt;- int: offer&lt;br style=&quot;font-size: 20px;&quot;&gt;- String: department&lt;br style=&quot;font-size: 20px;&quot;&gt;&lt;br style=&quot;font-size: 20px;&quot;&gt;&lt;/span&gt;" style="text;html=1;strokeColor=none;fillColor=none;align=left;verticalAlign=top;spacingLeft=4;spacingRight=4;overflow=hidden;rotatable=0;points=[[0,0.5],[1,0.5]];portConstraint=eastwest;hachureGap=4;fontFamily=Times New Roman;fontSize=20;rounded=1;labelBackgroundColor=none;fontColor=#000000;labelBorderColor=none;whiteSpace=wrap;spacing=6;" parent="142" vertex="1">
                    <mxGeometry y="55" width="570" height="184" as="geometry"/>
                </mxCell>
                <mxCell id="144" value="" style="line;strokeWidth=1;fillColor=none;align=left;verticalAlign=top;spacingTop=-1;spacingLeft=3;spacingRight=3;rotatable=0;labelPosition=right;points=[];portConstraint=eastwest;hachureGap=4;fontFamily=Times New Roman;fontSize=20;rounded=1;labelBackgroundColor=none;fontColor=#000000;labelBorderColor=none;whiteSpace=wrap;spacing=6;html=1;strokeColor=#000000;" parent="142" vertex="1">
                    <mxGeometry y="239" width="570" height="8" as="geometry"/>
                </mxCell>
                <mxCell id="145" value="&lt;div style=&quot;font-size: 20px;&quot;&gt;&lt;span style=&quot;background-color: initial;&quot;&gt;+ decreaseStock(quantity: int): void&lt;/span&gt;&lt;br&gt;&lt;/div&gt;&lt;div style=&quot;font-size: 20px;&quot;&gt;+ getPrice(): float&lt;/div&gt;&lt;div style=&quot;font-size: 20px;&quot;&gt;+ getOffer(): int&lt;/div&gt;&lt;div style=&quot;font-size: 20px;&quot;&gt;+ getName: String&lt;/div&gt;&lt;div style=&quot;font-size: 20px;&quot;&gt;+ getDepartment(): String&lt;/div&gt;&lt;div style=&quot;font-size: 20px;&quot;&gt;+ buyProduct(quantity: int): void&lt;/div&gt;&lt;div style=&quot;&quot;&gt;&lt;span style=&quot;font-size: 20px;&quot;&gt;+ getQuantityStock(): int&lt;/span&gt;&lt;/div&gt;&lt;div style=&quot;&quot;&gt;&lt;span style=&quot;font-size: 20px;&quot;&gt;+ setQuantityStock(quantityStock: int): void&lt;/span&gt;&lt;/div&gt;&lt;div style=&quot;&quot;&gt;&lt;span style=&quot;font-size: 20px;&quot;&gt;+ getId(); int&lt;/span&gt;&lt;/div&gt;" style="text;html=1;strokeColor=none;fillColor=none;align=left;verticalAlign=top;spacingLeft=4;spacingRight=4;overflow=hidden;rotatable=0;points=[[0,0.5],[1,0.5]];portConstraint=eastwest;hachureGap=4;fontFamily=Times New Roman;fontSize=20;rounded=1;labelBackgroundColor=none;fontColor=#000000;labelBorderColor=none;whiteSpace=wrap;strokeWidth=8;spacing=6;" parent="142" vertex="1">
                    <mxGeometry y="247" width="570" height="239" as="geometry"/>
                </mxCell>
                <mxCell id="154" value="ProductPurchased" style="swimlane;fontStyle=0;align=center;verticalAlign=top;childLayout=stackLayout;horizontal=1;startSize=55;horizontalStack=0;resizeParent=1;resizeParentMax=0;resizeLast=0;collapsible=0;marginBottom=0;html=1;hachureGap=4;fontFamily=Times New Roman;fontSize=20;rounded=1;labelBackgroundColor=none;labelBorderColor=none;whiteSpace=wrap;fillStyle=auto;strokeWidth=6;shadow=0;glass=0;spacing=6;" parent="1" vertex="1">
                    <mxGeometry x="-640" y="1090" width="565" height="330" as="geometry"/>
                </mxCell>
                <mxCell id="155" value="&lt;span style=&quot;font-size: 20px;&quot;&gt;&lt;div style=&quot;font-size: 20px;&quot;&gt;- (static) int: counter&lt;br&gt;&lt;/div&gt;&lt;div style=&quot;font-size: 20px;&quot;&gt;-int: id&lt;/div&gt;&lt;div style=&quot;font-size: 20px;&quot;&gt;&lt;span style=&quot;background-color: initial;&quot;&gt;- Product: product&lt;/span&gt;&lt;/div&gt;&lt;div style=&quot;font-size: 20px;&quot;&gt;&lt;span style=&quot;background-color: initial;&quot;&gt;- int: quantity&lt;/span&gt;&lt;/div&gt;&lt;/span&gt;" style="text;html=1;strokeColor=none;fillColor=none;align=left;verticalAlign=top;spacingLeft=4;spacingRight=4;overflow=hidden;rotatable=0;points=[[0,0.5],[1,0.5]];portConstraint=eastwest;hachureGap=4;fontFamily=Times New Roman;fontSize=20;rounded=1;labelBackgroundColor=none;fontColor=#000000;labelBorderColor=none;whiteSpace=wrap;spacing=6;" parent="154" vertex="1">
                    <mxGeometry y="55" width="565" height="127" as="geometry"/>
                </mxCell>
                <mxCell id="156" value="" style="line;strokeWidth=1;fillColor=none;align=left;verticalAlign=top;spacingTop=-1;spacingLeft=3;spacingRight=3;rotatable=0;labelPosition=right;points=[];portConstraint=eastwest;hachureGap=4;fontFamily=Times New Roman;fontSize=20;rounded=1;labelBackgroundColor=none;fontColor=#000000;labelBorderColor=none;whiteSpace=wrap;spacing=6;html=1;strokeColor=#000000;" parent="154" vertex="1">
                    <mxGeometry y="182" width="565" height="8" as="geometry"/>
                </mxCell>
                <mxCell id="157" value="&lt;div style=&quot;font-size: 20px;&quot;&gt;+ getId(): int&lt;/div&gt;&lt;div style=&quot;font-size: 20px;&quot;&gt;+ getProduct(): Product&lt;/div&gt;&lt;div style=&quot;font-size: 20px;&quot;&gt;+ getQuantity(): int&lt;/div&gt;&lt;div style=&quot;font-size: 20px;&quot;&gt;&lt;br style=&quot;font-size: 20px;&quot;&gt;&lt;/div&gt;" style="text;html=1;strokeColor=none;fillColor=none;align=left;verticalAlign=top;spacingLeft=4;spacingRight=4;overflow=hidden;rotatable=0;points=[[0,0.5],[1,0.5]];portConstraint=eastwest;hachureGap=4;fontFamily=Times New Roman;fontSize=20;rounded=1;labelBackgroundColor=none;fontColor=#000000;labelBorderColor=none;whiteSpace=wrap;strokeWidth=9;spacing=6;" parent="154" vertex="1">
                    <mxGeometry y="190" width="565" height="140" as="geometry"/>
                </mxCell>
                <mxCell id="158" style="edgeStyle=elbowEdgeStyle;hachureGap=4;html=1;fontFamily=Times New Roman;fontSize=20;fontColor=#000000;elbow=vertical;rounded=1;endArrow=none;endFill=0;exitX=0.25;exitY=0;exitDx=0;exitDy=0;verticalAlign=top;labelBackgroundColor=none;strokeColor=#000000;labelBorderColor=none;spacing=6;" parent="1" source="159" edge="1">
                    <mxGeometry relative="1" as="geometry">
                        <mxPoint x="-37" y="660" as="targetPoint"/>
                        <mxPoint x="570" y="660" as="sourcePoint"/>
                        <Array as="points">
                            <mxPoint x="43" y="660"/>
                        </Array>
                    </mxGeometry>
                </mxCell>
                <mxCell id="159" value="Customer" style="swimlane;fontStyle=0;align=center;verticalAlign=top;childLayout=stackLayout;horizontal=1;startSize=55;horizontalStack=0;resizeParent=1;resizeParentMax=0;resizeLast=0;collapsible=0;marginBottom=0;html=1;hachureGap=4;fontFamily=Times New Roman;fontSize=20;rounded=1;labelBackgroundColor=none;labelBorderColor=none;whiteSpace=wrap;fillStyle=auto;strokeWidth=6;shadow=0;glass=0;spacing=6;" parent="1" vertex="1">
                    <mxGeometry x="340" y="700" width="470" height="310" as="geometry"/>
                </mxCell>
                <mxCell id="160" value="&lt;span style=&quot;font-size: 20px;&quot;&gt;-&amp;nbsp;&lt;/span&gt;(static)&amp;nbsp;int: amountCustomers&lt;br style=&quot;font-size: 20px;&quot;&gt;- LengShoppingList: lengClient" style="text;html=1;strokeColor=none;fillColor=none;align=left;verticalAlign=top;spacingLeft=4;spacingRight=4;overflow=hidden;rotatable=0;points=[[0,0.5],[1,0.5]];portConstraint=eastwest;hachureGap=4;fontFamily=Times New Roman;fontSize=20;rounded=1;labelBackgroundColor=none;fontColor=#000000;labelBorderColor=none;whiteSpace=wrap;spacing=6;" parent="159" vertex="1">
                    <mxGeometry y="55" width="470" height="75" as="geometry"/>
                </mxCell>
                <mxCell id="161" value="" style="line;strokeWidth=1;fillColor=none;align=left;verticalAlign=top;spacingTop=-1;spacingLeft=3;spacingRight=3;rotatable=0;labelPosition=right;points=[];portConstraint=eastwest;hachureGap=4;fontFamily=Times New Roman;fontSize=20;rounded=1;labelBackgroundColor=none;fontColor=#000000;labelBorderColor=none;whiteSpace=wrap;spacing=6;html=1;strokeColor=#000000;" parent="159" vertex="1">
                    <mxGeometry y="130" width="470" height="8" as="geometry"/>
                </mxCell>
                <mxCell id="162" value="+ empty(): void&lt;br style=&quot;font-size: 20px;&quot;&gt;+ countProducts(): void&lt;br style=&quot;font-size: 20px;&quot;&gt;+ totalPurchased(): void&lt;br style=&quot;font-size: 20px;&quot;&gt;+ displayList(): void&lt;br style=&quot;font-size: 20px;&quot;&gt;&lt;div style=&quot;font-size: 20px;&quot;&gt;&lt;span style=&quot;font-size: 20px;&quot;&gt;+ (static) getAmountCustomers(): void&lt;/span&gt;&lt;/div&gt;&lt;div style=&quot;font-size: 20px;&quot;&gt;&lt;span style=&quot;font-size: 20px;&quot;&gt;+ addProduct(quantity: int, product: Product): void&lt;/span&gt;&lt;/div&gt;" style="text;html=1;strokeColor=none;fillColor=none;align=left;verticalAlign=top;spacingLeft=4;spacingRight=4;overflow=hidden;rotatable=0;points=[[0,0.5],[1,0.5]];portConstraint=eastwest;hachureGap=4;fontFamily=Times New Roman;fontSize=20;rounded=1;labelBackgroundColor=none;fontColor=#000000;labelBorderColor=none;whiteSpace=wrap;spacing=6;" parent="159" vertex="1">
                    <mxGeometry y="138" width="470" height="172" as="geometry"/>
                </mxCell>
                <mxCell id="163" style="edgeStyle=elbowEdgeStyle;rounded=1;hachureGap=4;elbow=vertical;html=1;entryX=0.434;entryY=1.02;entryDx=0;entryDy=0;entryPerimeter=0;strokeWidth=1;fontFamily=Times New Roman;fontSize=20;fontColor=#000000;endArrow=open;endFill=0;endSize=19;verticalAlign=top;labelBackgroundColor=none;strokeColor=#000000;labelBorderColor=none;spacing=6;" parent="1" source="167" target="157" edge="1">
                    <mxGeometry relative="1" as="geometry">
                        <Array as="points">
                            <mxPoint x="-50" y="1540"/>
                        </Array>
                    </mxGeometry>
                </mxCell>
                <mxCell id="164" value="1...n" style="edgeLabel;html=1;align=center;verticalAlign=top;resizable=0;points=[];fontSize=20;fontFamily=Times New Roman;fontColor=#000000;rounded=1;labelBackgroundColor=#FFFFFF;labelBorderColor=none;spacing=6;" parent="163" vertex="1" connectable="0">
                    <mxGeometry x="-0.8637" y="-1" relative="1" as="geometry">
                        <mxPoint x="2" y="-13" as="offset"/>
                    </mxGeometry>
                </mxCell>
                <mxCell id="165" value="has" style="edgeLabel;html=1;align=center;verticalAlign=top;resizable=0;points=[];fontSize=20;fontFamily=Times New Roman;fontColor=#000000;rounded=1;labelBackgroundColor=#FFFFFF;labelBorderColor=none;spacing=6;" parent="163" vertex="1" connectable="0">
                    <mxGeometry x="-0.3008" y="-1" relative="1" as="geometry">
                        <mxPoint x="-175" y="-22" as="offset"/>
                    </mxGeometry>
                </mxCell>
                <mxCell id="166" value="0...n" style="edgeLabel;html=1;align=center;verticalAlign=top;resizable=0;points=[];fontSize=20;fontFamily=Times New Roman;fontColor=#000000;rounded=1;labelBackgroundColor=#FFFFFF;labelBorderColor=none;spacing=6;" parent="163" vertex="1" connectable="0">
                    <mxGeometry x="0.8529" y="4" relative="1" as="geometry">
                        <mxPoint x="6" y="-30" as="offset"/>
                    </mxGeometry>
                </mxCell>
                <mxCell id="167" value="LengShoppingList" style="swimlane;fontStyle=0;align=center;verticalAlign=top;childLayout=stackLayout;horizontal=1;startSize=55;horizontalStack=0;resizeParent=1;resizeParentMax=0;resizeLast=0;collapsible=0;marginBottom=0;html=1;hachureGap=4;fontFamily=Times New Roman;fontSize=20;rounded=1;fillStyle=auto;labelBackgroundColor=none;labelBorderColor=none;whiteSpace=wrap;strokeWidth=6;shadow=0;glass=0;gradientColor=none;swimlaneFillColor=none;spacing=6;" parent="1" vertex="1">
                    <mxGeometry y="1090" width="570" height="270" as="geometry"/>
                </mxCell>
                <mxCell id="168" value="- (static) int: counter&lt;br&gt;- int: id&lt;br style=&quot;font-size: 20px;&quot;&gt;-&amp;nbsp;&lt;span style=&quot;font-size: 20px;&quot;&gt;&lt;font style=&quot;font-size: 20px;&quot;&gt;&lt;font style=&quot;font-size: 20px;&quot;&gt;&lt;span style=&quot;word-spacing: normal; font-size: 20px;&quot;&gt;ArrayList&amp;lt;&lt;/span&gt;ProductPurchased&lt;span style=&quot;word-spacing: normal; font-size: 20px;&quot;&gt;&amp;gt;:&lt;/span&gt;&lt;/font&gt;&lt;/font&gt;&lt;/span&gt;&lt;span style=&quot;font-size: 20px; word-spacing: normal;&quot;&gt;&amp;nbsp;&lt;/span&gt;&lt;span style=&quot;font-size: 20px;&quot;&gt;listPurchases&lt;br style=&quot;font-size: 20px;&quot;&gt;&lt;/span&gt;" style="text;html=1;strokeColor=none;fillColor=none;align=left;verticalAlign=top;spacingLeft=4;spacingRight=4;overflow=hidden;rotatable=0;points=[[0,0.5],[1,0.5]];portConstraint=eastwest;hachureGap=4;fontFamily=Times New Roman;fontSize=20;rounded=1;labelBackgroundColor=none;fontColor=#000000;labelBorderColor=none;whiteSpace=wrap;spacing=6;" parent="167" vertex="1">
                    <mxGeometry y="55" width="570" height="95" as="geometry"/>
                </mxCell>
                <mxCell id="169" value="" style="line;strokeWidth=1;fillColor=none;align=left;verticalAlign=top;spacingTop=-1;spacingLeft=3;spacingRight=3;rotatable=0;labelPosition=right;points=[];portConstraint=eastwest;hachureGap=4;fontFamily=Times New Roman;fontSize=20;rounded=1;labelBackgroundColor=none;fontColor=#000000;labelBorderColor=none;whiteSpace=wrap;spacing=6;html=1;strokeColor=#0a0000;" parent="167" vertex="1">
                    <mxGeometry y="150" width="570" height="8" as="geometry"/>
                </mxCell>
                <mxCell id="170" value="&lt;div style=&quot;font-size: 20px;&quot;&gt;&lt;span style=&quot;font-size: 20px;&quot;&gt;+ addProduct(quantity: int, product: Producct): void&lt;/span&gt;&lt;/div&gt;&lt;div style=&quot;font-size: 20px;&quot;&gt;+ totalPurchased(): float&lt;br&gt;&lt;/div&gt;&lt;div style=&quot;font-size: 20px;&quot;&gt;+ getId(): int&lt;/div&gt;&lt;div style=&quot;font-size: 20px;&quot;&gt;+ getSize(): int&lt;/div&gt;" style="text;html=1;strokeColor=none;fillColor=none;align=left;verticalAlign=top;spacingLeft=4;spacingRight=4;overflow=hidden;rotatable=0;points=[[0,0.5],[1,0.5]];portConstraint=eastwest;hachureGap=4;fontFamily=Times New Roman;fontSize=20;rounded=1;labelBackgroundColor=none;fontColor=#000000;labelBorderColor=none;whiteSpace=wrap;spacing=6;" parent="167" vertex="1">
                    <mxGeometry y="158" width="570" height="112" as="geometry"/>
                </mxCell>
                <mxCell id="171" value="&lt;i&gt;User&lt;/i&gt;" style="swimlane;fontStyle=0;align=center;verticalAlign=top;childLayout=stackLayout;horizontal=1;startSize=55;horizontalStack=0;resizeParent=1;resizeParentMax=0;resizeLast=0;collapsible=0;marginBottom=0;html=1;hachureGap=4;fontFamily=Times New Roman;fontSize=20;rounded=1;labelBackgroundColor=none;labelBorderColor=none;whiteSpace=wrap;fillStyle=auto;strokeWidth=6;shadow=0;glass=0;spacing=6;" parent="1" vertex="1">
                    <mxGeometry x="596" y="152" width="470" height="316" as="geometry"/>
                </mxCell>
                <mxCell id="172" value="&lt;span style=&quot;font-size: 20px;&quot;&gt;- int: cedula&lt;br style=&quot;font-size: 20px;&quot;&gt;- String: firstName&lt;br style=&quot;font-size: 20px;&quot;&gt;- String: lastName&lt;br style=&quot;font-size: 20px;&quot;&gt;- String: address&lt;br style=&quot;font-size: 20px;&quot;&gt;&lt;/span&gt;" style="text;html=1;strokeColor=none;fillColor=none;align=left;verticalAlign=top;spacingLeft=4;spacingRight=4;overflow=hidden;rotatable=0;points=[[0,0.5],[1,0.5]];portConstraint=eastwest;hachureGap=4;fontFamily=Times New Roman;fontSize=20;rounded=1;labelBackgroundColor=none;fontColor=#000000;labelBorderColor=none;whiteSpace=wrap;spacing=6;" parent="171" vertex="1">
                    <mxGeometry y="55" width="470" height="112" as="geometry"/>
                </mxCell>
                <mxCell id="173" value="" style="line;strokeWidth=1;fillColor=none;align=left;verticalAlign=top;spacingTop=-1;spacingLeft=3;spacingRight=3;rotatable=0;labelPosition=right;points=[];portConstraint=eastwest;hachureGap=4;fontFamily=Times New Roman;fontSize=20;rounded=1;labelBackgroundColor=none;fontColor=#000000;labelBorderColor=none;whiteSpace=wrap;spacing=6;html=1;strokeColor=#000000;" parent="171" vertex="1">
                    <mxGeometry y="167" width="470" height="8" as="geometry"/>
                </mxCell>
                <mxCell id="174" value="+ toString(): String&lt;br&gt;+ getCedula(): int&lt;br&gt;+ getFirstName(): String&lt;br&gt;+ getLastName(): String&lt;br&gt;+ getAddress(): String" style="text;html=1;strokeColor=none;fillColor=none;align=left;verticalAlign=top;spacingLeft=4;spacingRight=4;overflow=hidden;rotatable=0;points=[[0,0.5],[1,0.5]];portConstraint=eastwest;hachureGap=4;fontFamily=Times New Roman;fontSize=20;rounded=1;labelBackgroundColor=none;fontColor=#000000;labelBorderColor=none;whiteSpace=wrap;spacing=6;" parent="171" vertex="1">
                    <mxGeometry y="175" width="470" height="141" as="geometry"/>
                </mxCell>
                <mxCell id="175" style="edgeStyle=elbowEdgeStyle;hachureGap=4;html=1;fontFamily=Times New Roman;fontSize=20;fontColor=#000000;elbow=vertical;endArrow=block;endFill=0;strokeWidth=1;endSize=19;rounded=1;verticalAlign=top;labelBackgroundColor=none;strokeColor=#000000;labelBorderColor=none;spacing=6;entryX=0.495;entryY=1;entryDx=0;entryDy=0;entryPerimeter=0;" parent="1" source="176" edge="1" target="174">
                    <mxGeometry relative="1" as="geometry">
                        <mxPoint x="830" y="480" as="targetPoint"/>
                    </mxGeometry>
                </mxCell>
                <mxCell id="176" value="Employee" style="swimlane;fontStyle=0;align=center;verticalAlign=top;childLayout=stackLayout;horizontal=1;startSize=55;horizontalStack=0;resizeParent=1;resizeParentMax=0;resizeLast=0;collapsible=0;marginBottom=0;html=1;hachureGap=4;fontFamily=Times New Roman;fontSize=20;rounded=1;labelBackgroundColor=none;labelBorderColor=none;whiteSpace=wrap;fillStyle=auto;strokeWidth=6;shadow=0;glass=0;spacing=6;" parent="1" vertex="1">
                    <mxGeometry x="940" y="700" width="470" height="250" as="geometry"/>
                </mxCell>
                <mxCell id="177" value="&lt;span style=&quot;font-size: 20px;&quot;&gt;-&amp;nbsp;&lt;/span&gt;(static)&amp;nbsp;&lt;span style=&quot;font-size: 20px;&quot;&gt;int: amountEmployees&lt;br&gt;- String: department&lt;br style=&quot;font-size: 20px;&quot;&gt;&lt;/span&gt;" style="text;html=1;strokeColor=none;fillColor=none;align=left;verticalAlign=top;spacingLeft=4;spacingRight=4;overflow=hidden;rotatable=0;points=[[0,0.5],[1,0.5]];portConstraint=eastwest;hachureGap=4;fontFamily=Times New Roman;fontSize=20;rounded=1;labelBackgroundColor=none;fontColor=#000000;labelBorderColor=none;whiteSpace=wrap;spacing=6;" parent="176" vertex="1">
                    <mxGeometry y="55" width="470" height="95" as="geometry"/>
                </mxCell>
                <mxCell id="178" value="" style="line;strokeWidth=1;fillColor=none;align=left;verticalAlign=top;spacingTop=-1;spacingLeft=3;spacingRight=3;rotatable=0;labelPosition=right;points=[];portConstraint=eastwest;hachureGap=4;fontFamily=Times New Roman;fontSize=20;rounded=1;labelBackgroundColor=none;fontColor=#000000;labelBorderColor=none;whiteSpace=wrap;spacing=6;html=1;strokeColor=#000000;" parent="176" vertex="1">
                    <mxGeometry y="150" width="470" height="8" as="geometry"/>
                </mxCell>
                <mxCell id="179" value="+ (static) getAountEmployees(): void&lt;br&gt;+ getDepartment(): String&lt;br&gt;+ addProductStock(product: Product, quantity: int)" style="text;html=1;strokeColor=none;fillColor=none;align=left;verticalAlign=top;spacingLeft=4;spacingRight=4;overflow=hidden;rotatable=0;points=[[0,0.5],[1,0.5]];portConstraint=eastwest;hachureGap=4;fontFamily=Times New Roman;fontSize=20;rounded=1;labelBackgroundColor=none;fontColor=#000000;labelBorderColor=none;whiteSpace=wrap;spacing=6;" parent="176" vertex="1">
                    <mxGeometry y="158" width="470" height="92" as="geometry"/>
                </mxCell>
                <mxCell id="180" value="&lt;font style=&quot;font-size: 20px;&quot;&gt;&amp;lt;&amp;lt; Interface &amp;gt;&amp;gt;&lt;br&gt;Billing&lt;/font&gt;" style="swimlane;fontStyle=0;align=center;verticalAlign=top;childLayout=stackLayout;horizontal=1;startSize=62;horizontalStack=0;resizeParent=1;resizeParentMax=0;resizeLast=0;collapsible=0;marginBottom=0;html=1;hachureGap=4;fontFamily=Times New Roman;fontSize=20;rounded=1;labelBackgroundColor=none;labelBorderColor=none;whiteSpace=wrap;fillStyle=auto;strokeWidth=6;shadow=0;glass=0;spacing=6;" parent="1" vertex="1">
                    <mxGeometry x="-228" y="290" width="470" height="200" as="geometry"/>
                </mxCell>
                <mxCell id="181" value="&lt;span style=&quot;font-size: 20px;&quot;&gt;&lt;br style=&quot;font-size: 20px;&quot;&gt;&lt;/span&gt;" style="text;html=1;strokeColor=none;fillColor=none;align=left;verticalAlign=top;spacingLeft=4;spacingRight=4;overflow=hidden;rotatable=0;points=[[0,0.5],[1,0.5]];portConstraint=eastwest;hachureGap=4;fontFamily=Times New Roman;fontSize=20;rounded=1;labelBackgroundColor=none;fontColor=#000000;labelBorderColor=none;whiteSpace=wrap;gradientColor=none;spacing=6;" parent="180" vertex="1">
                    <mxGeometry y="62" width="470" height="68" as="geometry"/>
                </mxCell>
                <mxCell id="182" value="" style="line;strokeWidth=1;fillColor=none;align=left;verticalAlign=top;spacingTop=-1;spacingLeft=3;spacingRight=3;rotatable=0;labelPosition=right;points=[];portConstraint=eastwest;hachureGap=4;fontFamily=Times New Roman;fontSize=20;rounded=1;labelBackgroundColor=none;fontColor=#000000;labelBorderColor=none;whiteSpace=wrap;spacing=6;html=1;strokeColor=#000000;" parent="180" vertex="1">
                    <mxGeometry y="130" width="470" height="8" as="geometry"/>
                </mxCell>
                <mxCell id="183" value="+ purchasedAmount(): String" style="text;html=1;strokeColor=none;fillColor=none;align=left;verticalAlign=top;spacingLeft=4;spacingRight=4;overflow=hidden;rotatable=0;points=[[0,0.5],[1,0.5]];portConstraint=eastwest;hachureGap=4;fontFamily=Times New Roman;fontSize=20;rounded=1;labelBackgroundColor=none;fontColor=#000000;labelBorderColor=none;whiteSpace=wrap;spacing=6;" parent="180" vertex="1">
                    <mxGeometry y="138" width="470" height="62" as="geometry"/>
                </mxCell>
                <mxCell id="184" style="edgeStyle=orthogonalEdgeStyle;hachureGap=4;html=1;fontFamily=Times New Roman;fontSize=20;fontColor=#000000;exitX=0.5;exitY=0;exitDx=0;exitDy=0;entryX=0.407;entryY=0.995;entryDx=0;entryDy=0;entryPerimeter=0;rounded=1;endArrow=open;endFill=0;verticalAlign=top;labelBackgroundColor=none;strokeColor=#000000;labelBorderColor=none;spacing=6;endSize=19;" parent="1" source="154" target="183" edge="1">
                    <mxGeometry relative="1" as="geometry">
                        <mxPoint x="-50" y="720" as="targetPoint"/>
                    </mxGeometry>
                </mxCell>
                <mxCell id="185" value="Implement" style="edgeLabel;html=1;align=center;verticalAlign=top;resizable=0;points=[];fontSize=20;fontFamily=Times New Roman;fontColor=#000000;rounded=1;labelBackgroundColor=#FFFFFF;labelBorderColor=none;spacing=6;" parent="184" vertex="1" connectable="0">
                    <mxGeometry x="0.2138" y="-3" relative="1" as="geometry">
                        <mxPoint x="67" y="-226" as="offset"/>
                    </mxGeometry>
                </mxCell>
                <mxCell id="186" style="edgeStyle=elbowEdgeStyle;hachureGap=4;html=1;fontFamily=Times New Roman;fontSize=20;fontColor=#000000;exitX=0.5;exitY=0;exitDx=0;exitDy=0;elbow=vertical;rounded=1;endArrow=none;endFill=0;verticalAlign=top;labelBackgroundColor=none;strokeColor=#000000;labelBorderColor=none;spacing=6;" parent="1" source="167" edge="1">
                    <mxGeometry relative="1" as="geometry">
                        <mxPoint x="-53" y="791" as="targetPoint"/>
                        <Array as="points">
                            <mxPoint x="40" y="790"/>
                            <mxPoint x="133" y="781"/>
                        </Array>
                    </mxGeometry>
                </mxCell>
                <mxCell id="187" style="edgeStyle=elbowEdgeStyle;hachureGap=4;html=1;fontFamily=Times New Roman;fontSize=20;fontColor=#000000;exitX=0.5;exitY=0;exitDx=0;exitDy=0;elbow=vertical;endArrow=block;endFill=0;rounded=1;startSize=7;endSize=19;verticalAlign=top;labelBackgroundColor=none;strokeColor=#000000;labelBorderColor=none;spacing=6;entryX=0.497;entryY=1.004;entryDx=0;entryDy=0;entryPerimeter=0;" parent="1" source="159" edge="1" target="174">
                    <mxGeometry relative="1" as="geometry">
                        <mxPoint x="540" y="590" as="sourcePoint"/>
                        <mxPoint x="830" y="480" as="targetPoint"/>
                        <Array as="points">
                            <mxPoint x="732" y="583"/>
                            <mxPoint x="774" y="580"/>
                            <mxPoint x="690" y="590"/>
                        </Array>
                    </mxGeometry>
                </mxCell>
                <mxCell id="188" value="Extends" style="edgeLabel;html=1;align=center;verticalAlign=top;resizable=0;points=[];fontSize=20;fontFamily=Times New Roman;fontColor=#000000;rounded=1;labelBackgroundColor=#FFFFFF;labelBorderColor=none;spacing=6;" parent="187" vertex="1" connectable="0">
                    <mxGeometry x="0.3661" y="-3" relative="1" as="geometry">
                        <mxPoint x="40" y="-65" as="offset"/>
                    </mxGeometry>
                </mxCell>
                <mxCell id="189" style="edgeStyle=elbowEdgeStyle;rounded=1;hachureGap=4;html=1;entryX=1.004;entryY=0.037;entryDx=0;entryDy=0;entryPerimeter=0;strokeWidth=1;fontFamily=Times New Roman;fontSize=20;fontColor=#000000;endArrow=none;endFill=0;startSize=19;endSize=19;startArrow=diamond;startFill=1;jumpSize=6;verticalAlign=top;labelBackgroundColor=none;strokeColor=#000000;labelBorderColor=none;spacing=6;" parent="1" source="162" target="170" edge="1">
                    <mxGeometry relative="1" as="geometry">
                        <Array as="points">
                            <mxPoint x="860" y="1150"/>
                        </Array>
                    </mxGeometry>
                </mxCell>
                <mxCell id="190" value="1 ... 1" style="edgeLabel;html=1;align=center;verticalAlign=top;resizable=0;points=[];fontSize=20;fontFamily=Times New Roman;fontColor=#000000;rounded=1;labelBackgroundColor=#FFFFFF;labelBorderColor=none;spacing=6;" parent="189" vertex="1" connectable="0">
                    <mxGeometry x="-0.728" y="1" relative="1" as="geometry">
                        <mxPoint y="1" as="offset"/>
                    </mxGeometry>
                </mxCell>
                <mxCell id="191" value="1 ... 1" style="edgeLabel;html=1;align=center;verticalAlign=top;resizable=0;points=[];fontSize=20;fontFamily=Times New Roman;fontColor=#000000;rounded=1;labelBackgroundColor=#FFFFFF;labelBorderColor=none;spacing=6;" parent="189" vertex="1" connectable="0">
                    <mxGeometry x="0.8208" y="2" relative="1" as="geometry">
                        <mxPoint x="-1" y="-22" as="offset"/>
                    </mxGeometry>
                </mxCell>
                <mxCell id="192" value="belongs" style="edgeLabel;html=1;align=center;verticalAlign=top;resizable=0;points=[];fontSize=20;fontFamily=Times New Roman;fontColor=#000000;rounded=1;labelBackgroundColor=#FFFFFF;labelBorderColor=none;spacing=6;" parent="189" vertex="1" connectable="0">
                    <mxGeometry x="-0.1237" y="-1" relative="1" as="geometry">
                        <mxPoint y="-6" as="offset"/>
                    </mxGeometry>
                </mxCell>
            </root>
        </mxGraphModel>
    </diagram>
</mxfile>